<svg xmlns="http://www.w3.org/2000/svg" xmlns:svg="http://www.w3.org/2000/svg" id="svg2" width="567.84" height="567.84" version="1.1" viewBox="0 0 532.35 532.35"><metadata id="metadata7"/><g id="layer1" transform="translate(-101.01527,-213.93559)"><rect style="opacity:1;fill:#5cb85c;fill-opacity:1;fill-rule:evenodd;stroke:none" id="rect4140" width="532.35" height="532.35" x="101.015" y="213.936" ry="266.175"/><g style="font-style:normal;font-variant:normal;font-weight:400;font-stretch:normal;font-size:325.95983887px;line-height:125%;font-family:'DejaVu Sans';-inkscape-font-specification:'DejaVu Sans, Normal';text-align:start;letter-spacing:0;word-spacing:0;writing-mode:lr-tb;text-anchor:start;fill:#fff;fill-opacity:1;stroke:none;stroke-width:1px;stroke-linecap:butt;stroke-linejoin:miter;stroke-opacity:1" id="text4136"><path id="path4140" d="m 530.17038,434.63649 c -5.45692,6.00261 -11.64142,11.27763 -18.18972,15.82506 -30.37684,20.55439 -60.93558,41.29067 -90.58482,62.75455 -15.27937,11.27763 -34.19668,25.10181 -54.02348,25.10181 l -0.1819,0 -0.1819,0 c -19.8268,0 -38.74411,-13.82418 -54.02347,-25.10181 -29.64925,-21.64577 -60.20799,-42.20016 -90.40293,-62.75455 -6.7302,-4.54743 -12.9147,-9.82245 -18.37162,-15.82506 l 0,144.4264 c 0,16.00696 13.0966,29.10356 29.10356,29.10356 l 267.75272,0 c 16.00696,0 29.10356,-13.0966 29.10356,-29.10356 l 0,-144.4264 z m 0,-53.47778 c 0,-16.00696 -13.2785,-29.10356 -29.10356,-29.10356 l -267.75272,0 c -19.46301,0 -29.10356,15.27937 -29.10356,33.1053 0,16.55264 18.37162,37.10703 31.28632,45.8381 28.19408,19.6449 56.75194,39.2898 84.94601,59.1166 11.82332,8.18537 31.83202,24.91992 46.56569,24.91992 l 0.1819,0 0.1819,0 c 14.73367,0 34.74237,-16.73455 46.56569,-24.91992 28.19407,-19.8268 56.75193,-39.4717 85.1279,-59.1166 16.00696,-11.09573 31.10443,-29.46735 31.10443,-49.83984 z"/></g></g></svg>