<svg xmlns="http://www.w3.org/2000/svg" xmlns:svg="http://www.w3.org/2000/svg" id="Layer_1" width="195.7" height="73.879" x="0" y="0" enable-background="new 0 0 196.6 72" version="1.1" viewBox="0 0 195.7 73.879" xml:space="preserve"><metadata id="metadata20"/><circle style="fill:none;stroke:#fff;stroke-width:5.56589985;stroke-miterlimit:10;stroke-opacity:1" id="XMLID_107_" cx="100.016" cy="15.583" r="11.8" stroke-miterlimit="10"/><circle style="fill:none;stroke:#fff;stroke-width:5.56589985;stroke-miterlimit:10;stroke-opacity:1" id="XMLID_106_" cx="122.516" cy="15.583" r="6.7" stroke-miterlimit="10"/><circle style="fill:none;stroke:#fff;stroke-width:5.56589985;stroke-miterlimit:10;stroke-opacity:1" id="XMLID_105_" cx="77.416" cy="15.583" r="6.7" stroke-miterlimit="10"/><g id="g4571" transform="translate(0.99999237,0.87893724)" style="fill:#fff"><path id="XMLID_121_" d="m 37.669669,48.9 c 5.9,0 9.2,4.2 9.2,10.5 0,0.6 -0.5,1.1 -1.1,1.1 l -15.9,0 c 0.1,5.6 4,8.8 8.5,8.8 2.8,0 4.8,-1.2 5.8,-2 0.6,-0.4 1.1,-0.3 1.4,0.3 l 0.3,0.5 c 0.3,0.5 0.2,1 -0.3,1.4 -1.2,0.9 -3.8,2.4 -7.3,2.4 -6.5,0 -11.5,-4.7 -11.5,-11.5 0.1,-7.2 4.9,-11.5 10.9,-11.5 z m 6.1,9.4 c -0.2,-4.6 -3,-6.9 -6.2,-6.9 -3.7,0 -6.9,2.4 -7.6,6.9 l 13.8,0 z" style="fill:#fff"/><path id="XMLID_119_" d="m 76.9,52.1 0,-2.5 0,-5.2 c 0,-0.7 0.4,-1.1 1.1,-1.1 l 0.8,0 c 0.7,0 1,0.4 1,1.1 l 0,5.2 4.5,0 c 0.7,0 1.1,0.4 1.1,1.1 l 0,0.3 c 0,0.7 -0.4,1 -1.1,1 l -4.5,0 0,11 c 0,5.1 3.1,5.7 4.8,5.8 0.9,0.1 1.2,0.3 1.2,1.1 l 0,0.6 c 0,0.7 -0.3,1 -1.2,1 -4.8,0 -7.7,-2.9 -7.7,-8.1 l 0,-11.3 z" style="fill:#fff"/><path id="XMLID_117_" d="m 99.8,48.9 c 3.8,0 6.2,1.6 7.3,2.5 0.5,0.4 0.6,0.9 0.1,1.5 l -0.3,0.5 c -0.4,0.6 -0.9,0.6 -1.5,0.2 -1,-0.7 -2.9,-2 -5.5,-2 -4.8,0 -8.6,3.6 -8.6,8.9 0,5.2 3.8,8.8 8.6,8.8 3.1,0 5.2,-1.4 6.2,-2.3 0.6,-0.4 1,-0.3 1.4,0.3 l 0.3,0.4 c 0.3,0.6 0.2,1 -0.3,1.5 -1.1,0.9 -3.8,2.8 -7.8,2.8 -6.5,0 -11.5,-4.7 -11.5,-11.5 0.1,-6.8 5.1,-11.6 11.6,-11.6 z" style="fill:#fff"/><path id="XMLID_115_" d="m 113.1,41.8 c 0,-0.7 -0.4,-1.1 0.3,-1.1 l 0.8,0 c 0.7,0 1.8,0.4 1.8,1.1 l 0,23.9 c 0,2.8 1.3,3.1 2.3,3.2 0.5,0 0.9,0.3 0.9,1 l 0,0.7 c 0,0.7 -0.3,1.1 -1.1,1.1 -1.8,0 -5,-0.6 -5,-5.4 l 0,-24.5 z" style="fill:#fff"/><path id="XMLID_112_" d="m 133.6,48.9 c 6.4,0 11.6,4.9 11.6,11.4 0,6.6 -5.2,11.6 -11.6,11.6 -6.4,0 -11.6,-5 -11.6,-11.6 0,-6.5 5.2,-11.4 11.6,-11.4 z m 0,20.4 c 4.7,0 8.5,-3.8 8.5,-9 0,-5 -3.8,-8.7 -8.5,-8.7 -4.7,0 -8.6,3.8 -8.6,8.7 0.1,5.1 3.9,9 8.6,9 z" style="fill:#fff"/><path id="XMLID_109_" d="m 183.5,48.9 c 5.3,0 7.2,4.4 7.2,4.4 l 0.1,0 c 0,0 -0.1,-0.7 -0.1,-1.7 l 0,-9.9 c 0,-0.7 -0.3,-1.1 0.4,-1.1 l 0.8,0 c 0.7,0 1.8,0.4 1.8,1.1 l 0,28.5 c 0,0.7 -0.3,1.1 -1,1.1 l -0.7,0 c -0.7,0 -1.1,-0.3 -1.1,-1 l 0,-1.7 c 0,-0.8 0.2,-1.4 0.2,-1.4 l -0.1,0 c 0,0 -1.9,4.6 -7.6,4.6 -5.9,0 -9.6,-4.7 -9.6,-11.5 -0.2,-6.8 3.9,-11.4 9.7,-11.4 z m 0.1,20.4 c 3.7,0 7.1,-2.6 7.1,-8.9 0,-4.5 -2.3,-8.8 -7,-8.8 -3.9,0 -7.1,3.2 -7.1,8.8 0.1,5.4 2.9,8.9 7,8.9 z" style="fill:#fff"/><path style="fill:#fff" id="XMLID_103_" d="m 1,71.4 0.8,0 c 0.7,0 1.1,-0.4 1.1,-1.1 l 0,-21.472335 C 2.9,45.427665 6.6,43 10.8,43 c 4.2,0 7.9,2.427665 7.9,5.827665 L 18.7,70.3 c 0,0.7 0.4,1.1 1.1,1.1 l 0.8,0 c 0.7,0 1,-0.4 1,-1.1 l 0,-21.6 c 0,-5.7 -5.7,-8.5 -10.9,-8.5 l 0,0 0,0 0,0 0,0 C 5.7,40.2 0,43 0,48.7 l 0,21.6 c 0,0.7 0.3,1.1 1,1.1 z"/><path style="fill:#fff" id="XMLID_102_" d="m 167.9,49.4 -0.8,0 c -0.7,0 -1.1,0.4 -1.1,1.1 l 0,12.1 c 0,3.4 -2.2,6.5 -6.5,6.5 -4.2,0 -6.5,-3.1 -6.5,-6.5 l 0,-12.1 c 0,-0.7 -0.4,-1.1 -1.1,-1.1 l -0.8,0 c -0.7,0 -1,0.4 -1,1.1 l 0,12.9 c 0,5.7 4.2,8.5 9.4,8.5 l 0,0 c 0,0 0,0 0,0 0,0 0,0 0,0 l 0,0 c 5.2,0 9.4,-2.8 9.4,-8.5 l 0,-12.9 c 0.1,-0.7 -0.3,-1.1 -1,-1.1 z"/><path id="path4165-9" d="m 68.908203,49.235938 c -0.244942,0.0391 -0.480102,0.202589 -0.705078,0.470703 l -4.046875,4.824218 -3.029297,3.609375 -4.585937,-5.466796 -2.488282,-2.966797 c -0.224975,-0.268116 -0.479748,-0.414718 -0.74414,-0.4375 -0.264393,-0.02278 -0.538524,0.07775 -0.806641,0.302734 l -0.613281,0.513672 c -0.536232,0.449952 -0.508545,0.948144 -0.05859,1.484375 l 4.048828,4.824219 3.357422,4 -4.916016,5.857421 c -0.0037,0.0044 -0.0061,0.0093 -0.0098,0.01367 l -2.480469,2.955078 c -0.449952,0.536232 -0.399531,1.100832 0.136719,1.550782 l 0.613281,0.511718 c 0.536231,0.449951 1.022704,0.33701 1.472656,-0.199218 l 4.046875,-4.824219 3.029297,-3.609375 4.585938,5.466797 c 0.003,0.0036 0.0067,0.0062 0.0098,0.0098 l 2.480469,2.957032 c 0.44995,0.536231 1.012595,0.584735 1.548828,0.134765 l 0.613282,-0.513671 c 0.536231,-0.449952 0.508544,-0.948144 0.05859,-1.484376 l -4.048828,-4.824218 -3.357422,-4 4.916016,-5.857422 c 0.0037,-0.0044 0.0061,-0.0093 0.0098,-0.01367 l 2.480469,-2.955078 c 0.449952,-0.53623 0.399532,-1.10083 -0.136719,-1.550781 l -0.613281,-0.513672 c -0.268115,-0.224976 -0.522636,-0.308636 -0.767578,-0.269531 z" style="fill:#fff"/></g></svg>