<svg xmlns="http://www.w3.org/2000/svg" xmlns:xlink="http://www.w3.org/1999/xlink" id="Layer_1" width="512" height="512" enable-background="new 0 0 512 512" version="1.1" viewBox="0 0 512 512" xml:space="preserve"><g><linearGradient id="SVGID_1_" x1="29.85" x2="443.086" y1="48.852" y2="462.088" gradientUnits="userSpaceOnUse"><stop offset="0" style="stop-color:#dd272d"/><stop offset=".515" style="stop-color:#ca2429"/><stop offset="1" style="stop-color:#b22025"/></linearGradient><polygon fill="url(#SVGID_1_)" points="217.949 313.149 313.196 256 217.949 198.851"/><linearGradient id="SVGID_2_" x1="39.351" x2="452.587" y1="39.351" y2="452.587" gradientUnits="userSpaceOnUse"><stop offset="0" style="stop-color:#dd272d"/><stop offset=".515" style="stop-color:#ca2429"/><stop offset="1" style="stop-color:#b22025"/></linearGradient><path fill="url(#SVGID_2_)" d="M256,7.098C118.535,7.098,7.098,118.535,7.098,256c0,137.465,111.437,248.902,248.902,248.902 c137.465,0,248.902-111.437,248.902-248.902C504.902,118.535,393.465,7.098,256,7.098z M408.349,268.287 c0,26.307-3.048,52.605-3.048,52.605s-2.981,22.402-12.106,32.251c-11.592,12.935-24.574,13.011-30.527,13.773 C320.026,370.183,256,370.297,256,370.297s-79.227-0.771-103.601-3.267c-6.782-1.353-21.993-0.962-33.594-13.897 c-9.134-9.849-12.106-32.251-12.106-32.251s-3.048-26.289-3.048-52.605v-24.65c0-26.298,3.048-52.596,3.048-52.596 s2.981-22.412,12.106-32.279c11.601-12.935,24.574-13.011,30.527-13.744c42.633-3.305,106.592-3.305,106.592-3.305h0.143 c0,0,63.959,0,106.601,3.305c5.953,0.733,18.935,0.81,30.527,13.744c9.134,9.868,12.106,32.279,12.106,32.279 s3.048,26.298,3.048,52.605V268.287z"/></g></svg>